# Blender v2.81 (sub 16) OBJ File: ''
# www.blender.org
mtllib TestBuildingBlenderExport.mtl
o SketchUp_ID3
v 100.500008 0.000000 -50.500000
v 50.500000 0.000000 -39.499996
v 50.500000 0.000000 -50.500000
v 50.500000 0.000000 -36.500000
v 50.500000 0.000000 -26.500000
v 50.500000 0.000000 -23.500000
v 50.500000 0.000000 -13.499999
v 50.500000 0.000000 -10.500000
v 50.500000 0.000000 0.500000
v 100.500008 0.000000 0.500000
v 50.000000 0.000000 -10.500000
v 50.000000 0.000000 -13.499999
v 50.000000 0.000000 -23.500000
v 50.000000 0.000000 -26.500000
v 50.000000 0.000000 -36.500000
v 50.000000 0.000000 -39.499996
v 50.000000 0.000000 -50.000000
v 0.000000 0.000000 0.000000
v 0.000000 0.000000 -50.000000
v 50.000000 0.000000 0.000000
v 50.000000 0.000000 -10.500000
v 50.000000 0.000000 -13.499999
v 50.000000 0.000000 0.000000
v 50.000000 0.000000 -23.500000
v 50.000000 0.000000 -26.500000
v 50.000000 0.000000 -36.500000
v 50.000000 0.000000 -39.499996
v 50.000000 0.000000 -50.000000
v 0.000000 0.000000 0.000000
v 0.000000 0.000000 -50.000000
v 50.500000 0.000000 -36.500000
v 50.500000 0.000000 -39.499996
v 50.500000 0.000000 -23.500000
v 50.500000 0.000000 -26.500000
v 50.500000 0.000000 -10.500000
v 50.500000 0.000000 -13.499999
v 100.500008 0.000000 0.500000
v 100.500008 0.000000 -50.500000
v 50.500000 0.000000 0.500000
v 50.500000 0.000000 -50.500000
v 50.000000 0.000000 -39.499996
v 50.500000 0.000000 -39.499996
v 50.500000 0.000000 -50.500000
v 100.500008 0.000000 -50.500000
v 100.500008 0.000000 0.500000
v 50.500000 0.000000 0.500000
v 50.500000 0.000000 -10.500000
v 50.000000 0.000000 -10.500000
v 50.000000 0.000000 0.000000
v 0.000000 0.000000 0.000000
v 0.000000 0.000000 -50.000000
v 50.000000 0.000000 -50.000000
v 50.500000 0.000000 -13.499999
v 50.500000 0.000000 -23.500000
v 50.000000 0.000000 -23.500000
v 50.000000 0.000000 -13.499999
v 50.500000 0.000000 -26.500000
v 50.500000 0.000000 -36.500000
v 50.000000 0.000000 -36.500000
v 50.000000 0.000000 -26.500000
v 50.000000 3.000000 -39.499996
v 50.500000 0.000000 -39.499996
v 50.000000 0.000000 -39.499996
v 50.500000 3.000000 -39.499996
v 50.500000 3.000000 -39.499996
v 50.000000 3.000000 -39.499996
v 50.500000 0.000000 -39.499996
v 50.000000 0.000000 -39.499996
v 50.000000 3.000000 -39.499996
v 50.500000 3.000000 -39.499996
v 50.500000 3.000000 -50.500000
v 50.500000 0.000000 -39.499996
v 50.500000 3.000000 -39.499996
v 50.500000 0.000000 -50.500000
v 50.500000 0.000000 -50.500000
v 50.500000 3.000000 -50.500000
v 50.500000 0.000000 -39.499996
v 50.500000 3.000000 -39.499996
v 50.500000 3.000000 -50.500000
v 50.500000 3.000000 -10.500000
v 50.500000 0.000000 0.500000
v 50.500000 3.000000 0.500000
v 50.500000 0.000000 -10.500000
v 50.500000 0.000000 -10.500000
v 50.500000 3.000000 -10.500000
v 50.500000 0.000000 0.500000
v 50.500000 3.000000 0.500000
v 50.500000 3.000000 0.500000
v 50.500000 3.000000 -10.500000
v 50.500000 3.000000 -10.500000
v 50.000000 0.000000 -10.500000
v 50.500000 0.000000 -10.500000
v 50.000000 3.000000 -10.500000
v 50.000000 3.000000 -10.500000
v 50.500000 3.000000 -10.500000
v 50.000000 0.000000 -10.500000
v 50.500000 0.000000 -10.500000
v 50.000000 3.000000 -10.500000
v 50.000000 0.000000 -10.500000
v 50.000000 3.000000 0.000000
v 50.000000 0.000000 0.000000
v 50.000000 3.000000 -10.500000
v 50.000000 3.000000 -10.500000
v 50.000000 0.000000 -10.500000
v 50.000000 3.000000 0.000000
v 50.000000 0.000000 0.000000
v 50.000000 3.000000 0.000000
v 50.000000 3.000000 0.000000
v 0.000000 0.000000 0.000000
v 50.000000 0.000000 0.000000
v 0.000000 3.000000 0.000000
v 0.000000 3.000000 0.000000
v 50.000000 3.000000 0.000000
v 0.000000 0.000000 0.000000
v 50.000000 0.000000 0.000000
v 0.000000 3.000000 0.000000
v 0.000000 3.000000 -50.000000
v 0.000000 0.000000 0.000000
v 0.000000 3.000000 0.000000
v 0.000000 0.000000 -50.000000
v 0.000000 0.000000 -50.000000
v 0.000000 3.000000 -50.000000
v 0.000000 0.000000 0.000000
v 0.000000 3.000000 0.000000
v 0.000000 3.000000 -50.000000
v 0.000000 3.000000 -50.000000
v 50.000000 0.000000 -50.000000
v 0.000000 0.000000 -50.000000
v 50.000000 3.000000 -50.000000
v 50.000000 3.000000 -50.000000
v 0.000000 3.000000 -50.000000
v 50.000000 0.000000 -50.000000
v 0.000000 0.000000 -50.000000
v 50.000000 3.000000 -50.000000
v 50.000000 0.000000 -50.000000
v 50.000000 3.000000 -39.499996
v 50.000000 0.000000 -39.499996
v 50.000000 3.000000 -50.000000
v 50.000000 3.000000 -50.000000
v 50.000000 0.000000 -50.000000
v 50.000000 3.000000 -39.499996
v 50.000000 0.000000 -39.499996
v -0.500000 3.000000 -50.500000
v 0.000000 3.000000 -50.000000
v -0.500000 3.000000 0.500000
v 50.500000 3.000000 -50.500000
v 50.000000 3.000000 -50.000000
v 50.000000 3.000000 -39.499996
v 50.500000 3.000000 -39.499996
v 50.500000 3.000000 -10.500000
v 50.000000 3.000000 0.000000
v 50.000000 3.000000 -10.500000
v 0.000000 3.000000 0.000000
v 50.500000 3.000000 0.500000
v 50.500000 3.000000 -10.500000
v 50.000000 3.000000 0.000000
v 50.500000 3.000000 0.500000
v 0.000000 3.000000 0.000000
v 0.000000 3.000000 -50.000000
v -0.500000 3.000000 0.500000
v 50.000000 3.000000 -10.500000
v 50.500000 3.000000 -39.499996
v 50.500000 3.000000 -50.500000
v 50.000000 3.000000 -39.499996
v 50.000000 3.000000 -50.000000
v -0.500000 3.000000 -50.500000
v -0.500000 3.000000 0.500000
v -0.500000 3.000000 -50.500000
v 50.500000 3.000000 -50.500000
v -0.500000 0.000000 -50.500000
v 50.500000 0.000000 -50.500000
v -0.500000 3.000000 -50.500000
v -0.500000 3.000000 -50.500000
v 50.500000 3.000000 -50.500000
v -0.500000 0.000000 -50.500000
v 50.500000 0.000000 -50.500000
v -0.500000 0.000000 -50.500000
v -0.500000 3.000000 0.500000
v 50.500000 0.000000 0.500000
v -0.500000 0.000000 0.500000
v 50.500000 3.000000 0.500000
v 50.500000 3.000000 0.500000
v -0.500000 3.000000 0.500000
v 50.500000 0.000000 0.500000
v -0.500000 0.000000 0.500000
v -0.500000 0.000000 0.500000
v -0.500000 0.000000 -50.500000
v -0.500000 3.000000 0.500000
v -0.500000 0.000000 0.500000
v -0.500000 3.000000 -50.500000
v -0.500000 3.000000 -50.500000
v -0.500000 0.000000 -50.500000
v -0.500000 3.000000 0.500000
v -0.500000 0.000000 0.500000
vn 0.0000 -1.0000 0.0000
vn 0.0000 1.0000 0.0000
vn 0.0000 0.0000 1.0000
vn 0.0000 0.0000 -1.0000
vn -1.0000 0.0000 0.0000
vn 1.0000 0.0000 0.0000
usemtl material
s off
f 1//1 2//1 3//1
f 2//1 1//1 4//1
f 4//1 1//1 5//1
f 5//1 1//1 6//1
f 6//1 1//1 7//1
f 7//1 1//1 8//1
f 8//1 1//1 9//1
f 9//1 1//1 10//1
f 7//1 11//1 12//1
f 11//1 7//1 8//1
f 5//1 13//1 14//1
f 13//1 5//1 6//1
f 2//1 15//1 16//1
f 15//1 2//1 4//1
f 17//1 18//1 19//1
f 18//1 17//1 20//1
f 20//2 17//2 16//2
f 20//1 16//1 15//1
f 20//3 15//3 14//3
f 20//3 14//3 13//3
f 20//3 13//3 12//3
f 20//1 12//1 11//1
f 61//4 62//4 63//4
f 62//4 61//4 64//4
f 71//5 72//5 73//5
f 72//5 71//5 74//5
f 80//5 81//5 82//5
f 81//5 80//5 83//5
f 90//3 91//3 92//3
f 91//3 90//3 93//3
f 99//6 100//6 101//6
f 100//6 99//6 102//6
f 108//3 109//3 110//3
f 109//3 108//3 111//3
f 117//5 118//5 119//5
f 118//5 117//5 120//5
f 126//4 127//4 128//4
f 127//4 126//4 129//4
f 135//6 136//6 137//6
f 136//6 135//6 138//6
f 143//1 144//1 145//1
f 144//1 143//1 146//1
f 144//1 146//1 147//1
f 147//1 146//1 148//1
f 148//1 146//1 149//1
f 150//1 151//1 152//1
f 145//1 153//1 154//1
f 153//1 145//1 144//1
f 154//1 153//1 151//1
f 154//1 151//1 150//1
f 169//3 170//3 171//3
f 170//3 169//3 172//3
f 178//4 179//4 180//4
f 179//4 178//4 181//4
f 187//6 188//6 189//6
f 188//6 187//6 190//6
usemtl material_0
f 21//3 22//3 23//3
f 22//3 24//3 23//3
f 24//3 25//3 23//3
f 25//3 26//3 23//3
f 26//3 27//3 23//3
f 27//3 28//3 23//3
f 23//2 28//2 29//2
f 30//2 29//2 28//2
f 31//2 32//2 26//2
f 27//2 26//2 32//2
f 33//2 34//2 24//2
f 25//2 24//2 34//2
f 35//2 36//2 21//2
f 22//2 21//2 36//2
f 37//2 38//2 39//2
f 39//2 38//2 35//2
f 35//2 38//2 36//2
f 36//2 38//2 33//2
f 33//2 38//2 34//2
f 34//2 38//2 31//2
f 31//2 38//2 32//2
f 40//2 32//2 38//2
f 65//3 66//3 67//3
f 68//3 67//3 66//3
f 75//6 76//6 77//6
f 78//6 77//6 76//6
f 84//6 85//6 86//6
f 87//6 86//6 85//6
f 94//4 95//4 96//4
f 97//4 96//4 95//4
f 103//5 104//5 105//5
f 106//5 105//5 104//5
f 112//4 113//4 114//4
f 115//4 114//4 113//4
f 121//6 122//6 123//6
f 124//6 123//6 122//6
f 130//3 131//3 132//3
f 133//3 132//3 131//3
f 139//5 140//5 141//5
f 142//5 141//5 140//5
f 155//2 156//2 157//2
f 156//2 158//2 157//2
f 159//2 160//2 158//2
f 157//2 158//2 160//2
f 161//2 156//2 155//2
f 162//2 163//2 164//2
f 164//2 163//2 165//2
f 165//2 163//2 159//2
f 163//2 166//2 159//2
f 160//2 159//2 166//2
f 173//4 174//4 175//4
f 176//4 175//4 174//4
f 182//3 183//3 184//3
f 185//3 184//3 183//3
f 191//5 192//5 193//5
f 194//5 193//5 192//5
l 41 42
l 42 43
l 43 44
l 44 45
l 46 45
l 46 47
l 48 47
l 49 48
l 50 49
l 51 50
l 52 51
l 41 52
l 53 54
l 55 54
l 56 55
l 56 53
l 57 58
l 59 58
l 60 59
l 60 57
l 41 69
l 69 70
l 42 70
l 70 79
l 43 79
l 46 88
l 88 89
l 47 89
l 98 89
l 48 98
l 107 98
l 49 107
l 116 107
l 50 116
l 125 116
l 51 125
l 134 125
l 52 134
l 69 134
l 167 88
l 168 167
l 79 168
l 43 177
l 177 168
l 186 46
l 186 167
l 177 186
o SketchUp.001_ID17
v 50.500000 3.000000 -36.500000
v 50.000000 3.000000 -26.500000
v 50.000000 3.000000 -36.500000
v 50.500000 3.000000 -26.500000
v 50.500000 3.000000 -26.500000
v 50.500000 3.000000 -36.500000
v 50.000000 3.000000 -26.500000
v 50.000000 3.000000 -36.500000
v 50.000000 3.000000 -26.500000
v 50.000000 3.000000 -36.500000
v 50.500000 3.000000 -36.500000
v 50.500000 3.000000 -26.500000
v 50.000000 0.000000 -36.500000
v 50.000000 3.000000 -26.500000
v 50.000000 0.000000 -26.500000
v 50.000000 3.000000 -36.500000
v 50.000000 3.000000 -36.500000
v 50.000000 0.000000 -36.500000
v 50.000000 3.000000 -26.500000
v 50.000000 0.000000 -26.500000
v 50.000000 0.000000 -26.500000
v 50.000000 0.000000 -36.500000
v 50.500000 3.000000 -36.500000
v 50.000000 0.000000 -36.500000
v 50.500000 0.000000 -36.500000
v 50.000000 3.000000 -36.500000
v 50.000000 3.000000 -36.500000
v 50.500000 3.000000 -36.500000
v 50.000000 0.000000 -36.500000
v 50.500000 0.000000 -36.500000
v 50.500000 0.000000 -36.500000
v 50.500000 3.000000 -36.500000
v 50.500000 0.000000 -26.500000
v 50.500000 3.000000 -26.500000
v 50.500000 0.000000 -36.500000
v 50.500000 0.000000 -36.500000
v 50.500000 3.000000 -36.500000
v 50.500000 0.000000 -26.500000
v 50.500000 3.000000 -26.500000
v 50.500000 0.000000 -26.500000
v 50.000000 3.000000 -26.500000
v 50.500000 0.000000 -26.500000
v 50.000000 0.000000 -26.500000
v 50.500000 3.000000 -26.500000
v 50.500000 3.000000 -26.500000
v 50.000000 3.000000 -26.500000
v 50.500000 0.000000 -26.500000
v 50.000000 0.000000 -26.500000
vn 0.0000 -1.0000 0.0000
vn 1.0000 0.0000 0.0000
vn 0.0000 0.0000 1.0000
vn -1.0000 0.0000 0.0000
vn 0.0000 0.0000 -1.0000
vn 0.0000 1.0000 0.0000
usemtl material
s off
f 195//7 196//7 197//7
f 196//7 195//7 198//7
f 207//8 208//8 209//8
f 208//8 207//8 210//8
f 217//9 218//9 219//9
f 218//9 217//9 220//9
f 226//10 227//10 228//10
f 227//10 226//10 229//10
f 235//11 236//11 237//11
f 236//11 235//11 238//11
usemtl material_0
f 199//12 200//12 201//12
f 202//12 201//12 200//12
f 211//10 212//10 213//10
f 214//10 213//10 212//10
f 221//11 222//11 223//11
f 224//11 223//11 222//11
f 230//8 231//8 232//8
f 233//8 232//8 231//8
f 239//9 240//9 241//9
f 242//9 241//9 240//9
l 203 204
l 204 205
l 206 205
l 203 206
l 215 216
l 216 204
l 215 203
l 216 225
l 225 205
l 234 225
l 234 206
l 215 234
o SketchUp.002_ID25
v 50.500000 3.000000 -23.500000
v 50.000000 3.000000 -13.499999
v 50.000000 3.000000 -23.500000
v 50.500000 3.000000 -13.499999
v 50.500000 3.000000 -13.499999
v 50.500000 3.000000 -23.500000
v 50.000000 3.000000 -13.499999
v 50.000000 3.000000 -23.500000
v 50.500000 3.000000 -13.499999
v 50.500000 3.000000 -23.500000
v 50.000000 3.000000 -13.499999
v 50.000000 3.000000 -23.500000
v 50.500000 3.000000 -23.500000
v 50.500000 0.000000 -13.499999
v 50.500000 3.000000 -13.499999
v 50.500000 0.000000 -23.500000
v 50.500000 0.000000 -23.500000
v 50.500000 3.000000 -23.500000
v 50.500000 0.000000 -13.499999
v 50.500000 3.000000 -13.499999
v 50.500000 0.000000 -13.499999
v 50.500000 0.000000 -23.500000
v 50.000000 3.000000 -13.499999
v 50.500000 0.000000 -13.499999
v 50.000000 0.000000 -13.499999
v 50.500000 3.000000 -13.499999
v 50.500000 3.000000 -13.499999
v 50.000000 3.000000 -13.499999
v 50.500000 0.000000 -13.499999
v 50.000000 0.000000 -13.499999
v 50.000000 0.000000 -13.499999
v 50.000000 0.000000 -23.500000
v 50.000000 3.000000 -13.499999
v 50.000000 0.000000 -13.499999
v 50.000000 3.000000 -23.500000
v 50.000000 3.000000 -23.500000
v 50.000000 0.000000 -23.500000
v 50.000000 3.000000 -13.499999
v 50.000000 0.000000 -13.499999
v 50.000000 0.000000 -23.500000
v 50.500000 3.000000 -23.500000
v 50.000000 0.000000 -23.500000
v 50.500000 0.000000 -23.500000
v 50.000000 3.000000 -23.500000
v 50.000000 3.000000 -23.500000
v 50.500000 3.000000 -23.500000
v 50.000000 0.000000 -23.500000
v 50.500000 0.000000 -23.500000
vn 0.0000 -1.0000 0.0000
vn -1.0000 0.0000 0.0000
vn 0.0000 0.0000 -1.0000
vn 1.0000 0.0000 0.0000
vn 0.0000 0.0000 1.0000
vn 0.0000 1.0000 0.0000
usemtl material
s off
f 243//13 244//13 245//13
f 244//13 243//13 246//13
f 255//14 256//14 257//14
f 256//14 255//14 258//14
f 265//15 266//15 267//15
f 266//15 265//15 268//15
f 274//16 275//16 276//16
f 275//16 274//16 277//16
f 283//17 284//17 285//17
f 284//17 283//17 286//17
usemtl material_0
f 247//18 248//18 249//18
f 250//18 249//18 248//18
f 259//16 260//16 261//16
f 262//16 261//16 260//16
f 269//17 270//17 271//17
f 272//17 271//17 270//17
f 278//14 279//14 280//14
f 281//14 280//14 279//14
f 287//15 288//15 289//15
f 290//15 289//15 288//15
l 251 252
l 253 251
l 253 254
l 254 252
l 263 264
l 263 251
l 264 252
l 273 263
l 273 253
l 273 282
l 282 254
l 282 264
